<svg width="114" height="162" viewBox="0 0 114 162" fill="none" xmlns="http://www.w3.org/2000/svg">
<path d="M80.5 36.5C80.5 56.3346 62.6416 72.5 40.5 72.5C18.3584 72.5 0.5 56.3346 0.5 36.5C0.5 16.6654 18.3584 0.5 40.5 0.5C62.6416 0.5 80.5 16.6654 80.5 36.5Z" fill="white" stroke="black"/>
<path d="M29.5 26.5C29.5 29.1558 26.7089 31.5 23 31.5C19.2911 31.5 16.5 29.1558 16.5 26.5C16.5 23.8442 19.2911 21.5 23 21.5C26.7089 21.5 29.5 23.8442 29.5 26.5Z" fill="white" stroke="black"/>
<path d="M60.5 26.5C60.5 29.1558 57.7089 31.5 54 31.5C50.2911 31.5 47.5 29.1558 47.5 26.5C47.5 23.8442 50.2911 21.5 54 21.5C57.7089 21.5 60.5 23.8442 60.5 26.5Z" fill="white" stroke="black"/>
<mask id="path-4-inside-1_2001_12" fill="white">
<path d="M46.9792 48.0767C47.0529 48.826 46.9302 49.5793 46.619 50.2899C46.3077 51.0005 45.8143 51.6535 45.1694 52.2085C44.5244 52.7635 43.7415 53.2088 42.869 53.5168C41.9965 53.8248 41.053 53.9891 40.0965 53.9995C39.1401 54.0098 38.1911 53.8661 37.3081 53.5771C36.4252 53.2881 35.6269 52.8599 34.9628 52.3191C34.2986 51.7783 33.7825 51.1362 33.4464 50.4326C33.1103 49.729 32.9613 48.9787 33.0086 48.2281L40 48.5L46.9792 48.0767Z"/>
</mask>
<path d="M46.9792 48.0767C47.0529 48.826 46.9302 49.5793 46.619 50.2899C46.3077 51.0005 45.8143 51.6535 45.1694 52.2085C44.5244 52.7635 43.7415 53.2088 42.869 53.5168C41.9965 53.8248 41.053 53.9891 40.0965 53.9995C39.1401 54.0098 38.1911 53.8661 37.3081 53.5771C36.4252 53.2881 35.6269 52.8599 34.9628 52.3191C34.2986 51.7783 33.7825 51.1362 33.4464 50.4326C33.1103 49.729 32.9613 48.9787 33.0086 48.2281L40 48.5L46.9792 48.0767Z" fill="white" stroke="black" stroke-width="2" mask="url(#path-4-inside-1_2001_12)"/>
<path d="M0.337168 108.514C0.292886 101.554 1.29658 94.6559 3.29094 88.2128C5.28531 81.7698 8.23128 75.9082 11.9607 70.9629C15.6901 66.0176 20.1298 62.0853 25.0265 59.3906C29.9231 56.6959 35.1807 55.2915 40.4992 55.2577C45.8176 55.2238 51.0927 56.5612 56.0232 59.1934C60.9537 61.8256 65.4432 65.701 69.2352 70.5985C73.0272 75.496 76.0475 81.3196 78.1237 87.7367C80.1999 94.1539 81.2913 101.039 81.3355 107.999L40.8363 108.257L0.337168 108.514Z" fill="white"/>
<line x1="65.1838" y1="77.798" x2="111.874" y2="102.899" stroke="#FF0000" stroke-width="5"/>
</svg>
